<svg width="246" height="229" viewBox="0 0 246 229" fill="none" xmlns="http://www.w3.org/2000/svg">
<path d="M83.6184 193.408C84.353 199.719 79.8325 205.431 73.5215 206.165C67.2105 206.9 61.4989 202.38 60.7643 196.069C60.0296 189.758 64.5501 184.046 70.8611 183.311C77.1721 182.577 82.8837 187.097 83.6184 193.408Z" fill="#312783"/>
<path fill-rule="evenodd" clip-rule="evenodd" d="M124.625 218.897L69.285 190.143L66.456 195.587L130.76 229V102.004H124.625L124.625 218.897Z" fill="#312783"/>
<path fill-rule="evenodd" clip-rule="evenodd" d="M239.183 48.801L174.299 56.2321L173.6 50.1364L238.485 42.7053L239.183 48.801Z" fill="#312783"/>
<path d="M175.045 52.5359C175.045 81.5507 151.524 105.072 122.509 105.072C93.4946 105.072 69.9734 81.5507 69.9734 52.5359C69.9734 23.5211 93.4946 0 122.509 0C151.524 0 175.045 23.5211 175.045 52.5359Z" fill="#D9D9D9"/>
<path fill-rule="evenodd" clip-rule="evenodd" d="M122.509 96.7139C146.908 96.7139 166.687 76.9347 166.687 52.5359C166.687 28.1371 146.908 8.35799 122.509 8.35799C98.1105 8.35799 78.3314 28.1371 78.3314 52.5359C78.3314 76.9347 98.1105 96.7139 122.509 96.7139ZM122.509 105.072C151.524 105.072 175.045 81.5507 175.045 52.5359C175.045 23.5211 151.524 0 122.509 0C93.4946 0 69.9734 23.5211 69.9734 52.5359C69.9734 81.5507 93.4946 105.072 122.509 105.072Z" fill="#312783"/>
<path d="M245.325 43.6731C245.888 48.5089 242.424 52.8855 237.588 53.4484C232.752 54.0113 228.376 50.5474 227.813 45.7116C227.25 40.8758 230.714 36.4992 235.55 35.9363C240.385 35.3734 244.762 38.8373 245.325 43.6731Z" fill="#312783"/>
<path fill-rule="evenodd" clip-rule="evenodd" d="M9.3026 74.6769L71.8017 65.6679L70.9263 59.5951L8.42722 68.6041L9.3026 74.6769Z" fill="#312783"/>
<path d="M0.291009 71.4073C0.875406 76.4274 5.41875 80.0232 10.4388 79.4388C15.4589 78.8544 19.0548 74.3111 18.4704 69.291C17.886 64.2709 13.3427 60.675 8.32255 61.2594C3.30246 61.8438 -0.293388 66.3872 0.291009 71.4073Z" fill="#312783"/>
</svg>
