<svg width="20" height="20" viewBox="0 0 20 20" fill="none" xmlns="http://www.w3.org/2000/svg">
<g clip-path="url(#clip0_125_210)">
<path fill-rule="evenodd" clip-rule="evenodd" d="M18.512 19.0132H1.48799C0.671986 19.0132 0.0109863 18.4342 0.0109863 17.7202V2.28223C0.0109863 1.56923 0.671986 0.990234 1.48799 0.990234H18.512C19.327 0.990234 19.988 1.56923 19.988 2.28223V17.7202C19.988 18.4342 19.327 19.0132 18.512 19.0132ZM3.47299 16.0442H6.41499V7.90723H3.47299V16.0442ZM4.96399 3.98523C3.95699 3.98523 3.29999 4.59223 3.29999 5.39123C3.29999 6.17123 3.93799 6.79723 4.92499 6.79723H4.94399C5.96999 6.79723 6.60799 6.17123 6.60799 5.39123C6.58999 4.59223 5.96999 3.98523 4.96399 3.98523ZM17.023 11.3792C17.023 8.87923 15.571 7.71623 13.636 7.71623C12.074 7.71623 11.376 8.50523 10.985 9.06023V7.90723H8.04299C8.08199 8.67123 8.04299 16.0442 8.04299 16.0442H10.985V11.5002C10.985 11.2582 11.004 11.0142 11.082 10.8412C11.294 10.3552 11.779 9.85223 12.591 9.85223C13.656 9.85223 14.081 10.5982 14.081 11.6922V16.0442H17.023V11.3792ZM10.965 9.08723C10.971 9.07823 10.979 9.06923 10.985 9.06023V9.08723H10.965Z" fill="#DF4D1B"/>
</g>
<defs>
<clipPath id="clip0_125_210">
<rect width="20" height="20" fill="white"/>
</clipPath>
</defs>
</svg>
