<svg width="14" height="16" viewBox="0 0 14 16" fill="none" xmlns="http://www.w3.org/2000/svg">
<path d="M2.45628 2.01949C4.84741 -0.00650905 8.75286 -0.00647928 11.1436 2.01947C13.2547 3.80843 13.4882 7.19269 11.7053 9.20701L11.6988 9.2144L11.6926 9.22203L6.79995 15.2098L1.90733 9.22203L1.90109 9.2144L1.89455 9.20701C0.111707 7.19269 0.345205 3.80845 2.45628 2.01949ZM2.45628 2.01949L2.13305 1.63802M2.45628 2.01949L2.13305 1.63802M2.13305 1.63802C4.71069 -0.546005 8.88958 -0.546005 11.4669 1.63802C13.7892 3.60603 14.0507 7.31161 12.0798 9.5384H1.52014C-0.450752 7.31161 -0.189321 3.60603 2.13305 1.63802ZM4.18563 5.53836C4.18563 6.90861 5.46558 7.88453 6.86422 7.88453C8.26287 7.88453 9.54281 6.90861 9.54281 5.53836C9.54281 4.16811 8.26287 3.19219 6.86422 3.19219C5.46558 3.19219 4.18563 4.16811 4.18563 5.53836Z" stroke="white"/>
</svg>
