<svg width="20" height="11" viewBox="0 0 20 11" fill="none" xmlns="http://www.w3.org/2000/svg">
<path d="M10.0389 6.14501L10.0389 6.14498L10.0348 6.14734C9.98433 6.17589 9.91016 6.19696 9.82816 6.19696H9.82405C9.71513 6.19696 9.63677 6.16628 9.6033 6.14254L9.6026 6.14204L1.47074 0.4H18.172L10.4192 5.88092L10.4188 5.8812L10.073 6.12631L10.0704 6.12774L10.0704 6.12772L10.0683 6.12888L10.0389 6.14501ZM12.2405 6.45539L18.2617 10.6H1.33219L7.36628 6.42471L8.63636 7.3221L8.63748 7.32288C8.97323 7.55839 9.39649 7.67805 9.82678 7.67805C10.2564 7.67805 10.68 7.55744 11.016 7.32121L11.017 7.32056L12.2405 6.45539ZM6.04457 5.49128L0.599951 9.25927V1.64662L6.04457 5.49128ZM19 1.67754V9.26388L13.5631 5.52096L19 1.67754Z" stroke="white" stroke-width="0.8"/>
</svg>
