<svg width="50" height="50" viewBox="0 0 50 50" fill="none" xmlns="http://www.w3.org/2000/svg">
<path d="M25 2.56934C23.0543 2.56934 21.477 4.39551 21.477 6.64824C21.4783 8.32002 22.3607 9.82148 23.7032 10.4368C21.8581 11.5195 20.1172 14.6326 20.1172 16.8455H29.8828C29.8828 14.6336 28.1433 11.5225 26.2993 10.4383C27.6412 9.82188 28.5226 8.31982 28.523 6.64824C28.523 4.39561 26.9457 2.56934 25 2.56934ZM24.1211 18.7033V22.7072H5.95703V30.8127H7.71484V24.465H24.1211V30.8127H25.8789V24.465H42.2852V30.8127H44.043V22.7072H25.8789V18.7033H24.1211ZM25 33.1564C23.0543 33.1564 21.477 34.9826 21.477 37.2353C21.4783 38.907 22.3607 40.4085 23.7032 41.0238C21.8581 42.1065 20.1172 45.2197 20.1172 47.4326H29.8828C29.8828 45.2207 28.1433 42.1094 26.2993 41.0253C27.6412 40.4088 28.5226 38.9069 28.523 37.2354C28.523 34.9827 26.9457 33.1563 25 33.1564Z" fill="#BDBDBD"/>
<path d="M39.641 37.236C39.641 34.9834 41.2184 33.1572 43.1641 33.1572C45.1098 33.1571 46.6871 34.9835 46.6871 37.2361C46.6866 38.9077 45.8053 40.4096 44.4634 41.0261C46.3073 42.1102 48.0469 45.2215 48.0469 47.4334H38.2812C38.2812 45.2205 40.0222 42.1073 41.8673 41.0246C40.5248 40.4093 39.6424 38.9078 39.641 37.236Z" fill="#312783"/>
<path d="M3.31289 37.236C3.31289 34.9834 4.89023 33.1572 6.83594 33.1572C8.78164 33.1571 10.359 34.9835 10.359 37.2361C10.3585 38.9077 9.47715 40.4096 8.13525 41.0261C9.9792 42.1102 11.7188 45.2215 11.7188 47.4334H1.95312C1.95312 45.2205 3.69404 42.1073 5.53916 41.0246C4.19668 40.4093 3.31426 38.9078 3.31289 37.236Z" fill="#312783"/>
</svg>
