<svg width="20" height="16" viewBox="0 0 20 16" fill="none" xmlns="http://www.w3.org/2000/svg">
<path d="M16.0841 15.1659L16.0948 15.1569L18.7984 12.921C18.7986 12.9208 18.7989 12.9206 18.7991 12.9204C18.9015 12.8349 18.9161 12.779 18.9121 12.7273C18.8964 12.6844 18.8466 12.6063 18.6693 12.514L14.853 10.6355H14.831L14.7254 10.5827C14.686 10.563 14.5897 10.5338 14.3999 10.5338C14.1795 10.5338 14.0044 10.5913 13.8551 10.6982L12.7098 11.6694L12.7065 11.6721L12.7065 11.6721C12.5974 11.763 12.4714 11.8059 12.3882 11.8291L12.3879 11.8292C12.3259 11.8464 12.2236 11.8728 12.1219 11.8728H12.0805L12.0396 11.866L11.7858 11.8236L11.7855 11.8236L11.8677 11.3304C11.6983 11.3022 11.4542 11.2203 11.1356 11.0847C10.8169 10.9491 10.4202 10.7372 9.9457 10.4492L16.0841 15.1659ZM16.0841 15.1659L16.0738 15.1754M16.0841 15.1659L16.0738 15.1754M16.0738 15.1754C16.0067 15.2374 15.9037 15.3043 15.7491 15.3664L15.7489 15.3665M16.0738 15.1754L15.7489 15.3665M15.7489 15.3665C15.5955 15.4283 15.451 15.4663 15.3147 15.4842L15.7489 15.3665ZM11.7667 14.8748L11.7667 14.8748C12.583 15.1568 13.2523 15.3263 13.7818 15.3938C14.3564 15.4671 14.7462 15.5 14.9695 15.5C15.0709 15.5 15.1438 15.4972 15.1923 15.4932L11.7667 14.8748ZM11.7667 14.8748C10.9664 14.5983 10.0467 14.1791 9.00529 13.6117L9.00528 13.6117M11.7667 14.8748L9.00528 13.6117M9.00528 13.6117C7.98438 13.0555 6.88667 12.2856 5.71204 11.2956L5.71206 11.2956M9.00528 13.6117L5.71206 11.2956M5.71206 11.2956L5.70718 11.2916M5.71206 11.2956L5.70718 11.2916M5.70718 11.2916C4.77326 10.5244 4.00793 9.7975 3.40656 9.11118M5.70718 11.2916L1.94882 7.20014M1.94882 7.20014L1.94883 7.20016C2.31073 7.77639 2.79502 8.4132 3.40656 9.11118M1.94882 7.20014C1.58062 6.61393 1.3126 6.0951 1.13756 5.64188C0.954158 5.167 0.836133 4.77368 0.775866 4.45728C0.710889 4.11615 0.692881 3.88541 0.702234 3.74511C0.711401 3.60761 0.71855 3.49711 0.721787 3.42985C0.739692 3.34596 0.776025 3.24981 0.839375 3.14046C0.904527 3.028 0.976682 2.94838 1.05249 2.89152L1.06274 2.88383M1.94882 7.20014L1.06274 2.88383M3.40656 9.11118L3.03049 9.44068L3.40656 9.11118ZM1.06274 2.88383L1.07258 2.87563M1.06274 2.88383L1.07258 2.87563M1.07258 2.87563L3.77767 0.621398L3.46751 0.249216M1.07258 2.87563L3.46751 0.249216M3.46751 0.249216L3.77767 0.621398C3.87886 0.537069 3.9829 0.5 4.10842 0.5C4.2009 0.5 4.26311 0.521047 4.31122 0.551118C4.39111 0.601048 4.45739 0.660051 4.51264 0.728862L3.46751 0.249216Z" stroke="white"/>
</svg>
